<svg xmlns="http://www.w3.org/2000/svg" viewBox="0 0 420 420" role="img" aria-label="Six-frame animated incline dumbbell press">
  <defs>
    <linearGradient id="skin" x1="0" y1="0" x2="1" y2="1"><stop offset="0" stop-color="#b67848"/><stop offset=".55" stop-color="#85502f"/><stop offset="1" stop-color="#4b2b1d"/></linearGradient>
    <linearGradient id="skinLite" x1="0" y1="0" x2="1" y2="1"><stop offset="0" stop-color="#d39a67"/><stop offset="1" stop-color="#6a3e26"/></linearGradient>
    <linearGradient id="bench" x1="0" y1="0" x2="1" y2="1"><stop offset="0" stop-color="#2b3038"/><stop offset="1" stop-color="#111419"/></linearGradient>
    <radialGradient id="chestDim"><stop offset="0" stop-color="#e66736"/><stop offset="1" stop-color="#7f2515"/></radialGradient>
    <radialGradient id="chestBright"><stop offset="0" stop-color="#ffd46b"/><stop offset=".45" stop-color="#ff7a2d"/><stop offset="1" stop-color="#a62f13"/></radialGradient>
    <filter id="glow" x="-100%" y="-100%" width="300%" height="300%"><feGaussianBlur stdDeviation="7" result="b"/><feMerge><feMergeNode in="b"/><feMergeNode in="SourceGraphic"/></feMerge></filter>
    <filter id="shadow"><feDropShadow dx="0" dy="8" stdDeviation="7" flood-color="#000" flood-opacity=".45"/></filter>
    <g id="dumbbell"><rect x="-18" y="-5" width="36" height="10" rx="4" fill="#7d838d"/><rect x="-29" y="-18" width="13" height="36" rx="4" fill="#22262c" stroke="#505762" stroke-width="2"/><rect x="16" y="-18" width="13" height="36" rx="4" fill="#22262c" stroke="#505762" stroke-width="2"/></g>
    <g id="bodyBase" filter="url(#shadow)"><path d="M92 336 L279 198 Q290 190 300 203 L308 215 Q314 224 304 231 L118 367 Z" fill="url(#bench)" stroke="#3a414b" stroke-width="4"/><rect x="105" y="354" width="204" height="18" rx="8" fill="#171b20" stroke="#383e47" stroke-width="3"/><path d="M145 371 l-12 34 M267 371 l19 34" stroke="#4b525c" stroke-width="9" stroke-linecap="round"/><path d="M177 286 C152 307 140 337 132 381" stroke="url(#skin)" stroke-width="32" stroke-linecap="round" fill="none"/><path d="M215 286 C238 310 256 342 267 383" stroke="url(#skin)" stroke-width="32" stroke-linecap="round" fill="none"/><path d="M128 382 h-27" stroke="#0a0c0f" stroke-width="16" stroke-linecap="round"/><path d="M268 382 h27" stroke="#0a0c0f" stroke-width="16" stroke-linecap="round"/><path d="M137 244 C143 211 170 184 205 178 C240 172 270 190 279 219 C285 241 270 277 241 294 C213 311 177 302 153 282 C141 272 134 258 137 244 Z" fill="url(#skin)"/><path d="M146 252 C162 271 181 285 208 289 C232 292 252 283 269 268 L247 305 C218 323 178 315 151 292 Z" fill="#0b0d10" opacity=".9"/><path d="M245 185 C247 169 258 158 273 158 C291 158 301 172 298 188 C296 202 285 211 271 210 C256 210 246 201 245 185 Z" fill="url(#skinLite)"/><path d="M248 179 C253 163 270 151 287 157 C294 160 299 166 301 173 C290 166 277 166 266 171 C258 174 253 180 248 187 Z" fill="#111317"/><path d="M238 200 C248 195 257 194 267 197" stroke="url(#skin)" stroke-width="15" stroke-linecap="round"/><path d="M191 231 C186 248 186 266 190 280 M220 225 C225 242 226 260 222 279" stroke="#3b241b" stroke-width="3" opacity=".55" fill="none"/><path d="M175 255 C188 260 202 261 214 256 M179 273 C192 278 205 278 218 273" stroke="#3b241b" stroke-width="3" opacity=".45" fill="none"/></g>
  </defs>
  <style>.frame{opacity:0;animation-duration:3.6s;animation-timing-function:steps(1,end);animation-iteration-count:infinite}.f1{animation-name:f1}.f2{animation-name:f2}.f3{animation-name:f3}.f4{animation-name:f4}.f5{animation-name:f5}.f6{animation-name:f6}@keyframes f1{0%,9.9%,100%{opacity:1}10%,99.9%{opacity:0}}@keyframes f2{0%,9.9%{opacity:0}10%,19.9%{opacity:1}20%,89.9%{opacity:0}90%,99.9%{opacity:1}100%{opacity:0}}@keyframes f3{0%,19.9%{opacity:0}20%,29.9%{opacity:1}30%,79.9%{opacity:0}80%,89.9%{opacity:1}90%,100%{opacity:0}}@keyframes f4{0%,29.9%{opacity:0}30%,39.9%{opacity:1}40%,69.9%{opacity:0}70%,79.9%{opacity:1}80%,100%{opacity:0}}@keyframes f5{0%,39.9%{opacity:0}40%,49.9%{opacity:1}50%,59.9%{opacity:0}60%,69.9%{opacity:1}70%,100%{opacity:0}}@keyframes f6{0%,49.9%{opacity:0}50%,59.9%{opacity:1}60%,100%{opacity:0}}@media (prefers-reduced-motion: reduce){.frame{animation:none}.f3{opacity:1}.f1,.f2,.f4,.f5,.f6{opacity:0}}</style>
  <rect width="420" height="420" rx="28" fill="#090b0e"/><circle cx="315" cy="93" r="130" fill="#b98327" opacity=".045"/><path d="M24 386 H396" stroke="#252a31" stroke-width="2"/><text x="24" y="32" font-family="-apple-system,BlinkMacSystemFont,Segoe UI,sans-serif" font-size="13" font-weight="700" letter-spacing="2" fill="#f2d06b">6-FRAME • ~30° INCLINE</text>
  <g class="frame f1"><use href="#bodyBase"/><ellipse cx="204" cy="213" rx="48" ry="27" fill="url(#chestDim)" opacity=".38"/><path d="M174 211 C151 203 135 194 119 177" stroke="url(#skinLite)" stroke-width="24" stroke-linecap="round" fill="none"/><path d="M232 205 C256 197 275 187 292 170" stroke="url(#skinLite)" stroke-width="24" stroke-linecap="round" fill="none"/><path d="M119 177 C108 164 103 151 103 136" stroke="url(#skinLite)" stroke-width="19" stroke-linecap="round" fill="none"/><path d="M292 170 C303 157 307 144 307 129" stroke="url(#skinLite)" stroke-width="19" stroke-linecap="round" fill="none"/><use href="#dumbbell" transform="translate(101 129) rotate(-4)"/><use href="#dumbbell" transform="translate(309 122) rotate(4)"/></g>
  <g class="frame f2"><use href="#bodyBase"/><ellipse cx="204" cy="213" rx="48" ry="27" fill="url(#chestDim)" opacity=".5"/><path d="M174 210 C153 197 140 184 130 164" stroke="url(#skinLite)" stroke-width="24" stroke-linecap="round" fill="none"/><path d="M233 204 C254 191 269 177 279 157" stroke="url(#skinLite)" stroke-width="24" stroke-linecap="round" fill="none"/><path d="M130 164 C123 149 121 135 123 118" stroke="url(#skinLite)" stroke-width="19" stroke-linecap="round" fill="none"/><path d="M279 157 C286 142 288 128 286 111" stroke="url(#skinLite)" stroke-width="19" stroke-linecap="round" fill="none"/><use href="#dumbbell" transform="translate(124 110) rotate(-2)"/><use href="#dumbbell" transform="translate(285 103) rotate(2)"/></g>
  <g class="frame f3"><use href="#bodyBase"/><ellipse cx="204" cy="213" rx="48" ry="27" fill="url(#chestBright)" opacity=".58"/><path d="M176 208 C160 191 151 173 148 151" stroke="url(#skinLite)" stroke-width="24" stroke-linecap="round" fill="none"/><path d="M232 203 C248 186 258 168 261 146" stroke="url(#skinLite)" stroke-width="24" stroke-linecap="round" fill="none"/><path d="M148 151 C146 134 148 119 153 102" stroke="url(#skinLite)" stroke-width="19" stroke-linecap="round" fill="none"/><path d="M261 146 C263 129 261 114 256 97" stroke="url(#skinLite)" stroke-width="19" stroke-linecap="round" fill="none"/><use href="#dumbbell" transform="translate(154 94)"/><use href="#dumbbell" transform="translate(255 89)"/></g>
  <g class="frame f4"><use href="#bodyBase"/><ellipse cx="204" cy="213" rx="49" ry="28" fill="url(#chestBright)" opacity=".72" filter="url(#glow)"/><path d="M178 207 C169 184 167 160 171 136" stroke="url(#skinLite)" stroke-width="24" stroke-linecap="round" fill="none"/><path d="M230 202 C239 179 241 155 237 131" stroke="url(#skinLite)" stroke-width="24" stroke-linecap="round" fill="none"/><path d="M171 136 C174 120 180 105 187 91" stroke="url(#skinLite)" stroke-width="19" stroke-linecap="round" fill="none"/><path d="M237 131 C234 115 228 100 221 86" stroke="url(#skinLite)" stroke-width="19" stroke-linecap="round" fill="none"/><use href="#dumbbell" transform="translate(188 82) rotate(2)"/><use href="#dumbbell" transform="translate(220 77) rotate(-2)"/></g>
  <g class="frame f5"><use href="#bodyBase"/><ellipse cx="204" cy="213" rx="49" ry="28" fill="url(#chestBright)" opacity=".86" filter="url(#glow)"/><path d="M179 206 C176 177 179 149 187 121" stroke="url(#skinLite)" stroke-width="24" stroke-linecap="round" fill="none"/><path d="M229 201 C232 172 229 144 221 116" stroke="url(#skinLite)" stroke-width="24" stroke-linecap="round" fill="none"/><path d="M187 121 C193 107 198 94 202 78" stroke="url(#skinLite)" stroke-width="19" stroke-linecap="round" fill="none"/><path d="M221 116 C215 102 210 89 206 73" stroke="url(#skinLite)" stroke-width="19" stroke-linecap="round" fill="none"/><use href="#dumbbell" transform="translate(202 70) rotate(3)"/><use href="#dumbbell" transform="translate(206 65) rotate(-3)"/></g>
  <g class="frame f6"><use href="#bodyBase"/><ellipse cx="204" cy="213" rx="50" ry="29" fill="url(#chestBright)" opacity="1" filter="url(#glow)"/><path d="M180 205 C183 174 189 143 199 111" stroke="url(#skinLite)" stroke-width="24" stroke-linecap="round" fill="none"/><path d="M228 200 C225 169 219 138 209 106" stroke="url(#skinLite)" stroke-width="24" stroke-linecap="round" fill="none"/><path d="M199 111 C203 96 205 81 205 64" stroke="url(#skinLite)" stroke-width="19" stroke-linecap="round" fill="none"/><path d="M209 106 C205 91 203 76 203 59" stroke="url(#skinLite)" stroke-width="19" stroke-linecap="round" fill="none"/><use href="#dumbbell" transform="translate(204 56) rotate(4)"/><use href="#dumbbell" transform="translate(204 51) rotate(-4)"/></g>
  <text x="24" y="405" font-family="-apple-system,BlinkMacSystemFont,Segoe UI,sans-serif" font-size="12" fill="#9da4ae">Upper-chest highlight = instructional contraction cue</text>
</svg>